# xmcd CD database file
#
# Track frame offsets:
#	150
#	38755
#	62745
#	92738
#	146584
#	185940
#	230370
#	261362
#	284327
#	309614
#
# Disc length: 4560 seconds
#
# Revision: 0
# Processed by: cddbd v1.5.2PL0 Copyright (c) Steve Scherf et al.
# Submitted via: CDex 1.51
#
DISCID=9511ce0a
DTITLE=Anael - Within Our Reach
DYEAR=2006
DGENRE=New Age
TTITLE0=Lifting The Veil
TTITLE1=The First Supper
TTITLE2=Arrival Of The Cherubs
TTITLE3=Human History
TTITLE4=Heaven And Earth Spirits
TTITLE5=When The Sun Never Sleeps
TTITLE6=A New Beginning
TTITLE7=Fable Love {vocals by Anael)
TTITLE8=Pristine Light
TTITLE9=Hope For A Blue Planet (vocals by Anael)
EXTD=YEAR: 2006
EXTT0=
EXTT1=
EXTT2=
EXTT3=
EXTT4=
EXTT5=
EXTT6=
EXTT7=
EXTT8=
EXTT9=
PLAYORDER=
